<?xml version="1.0" encoding="iso-8859-1"?>
<!-- Generator: Adobe Illustrator 16.0.0, SVG Export Plug-In . SVG Version: 6.00 Build 0)  -->
<!DOCTYPE svg PUBLIC "-//W3C//DTD SVG 1.1//EN" "http://www.w3.org/Graphics/SVG/1.1/DTD/svg11.dtd">
<svg version="1.1" id="titre" xmlns="http://www.w3.org/2000/svg" xmlns:xlink="http://www.w3.org/1999/xlink" x="0px" y="0px"
	aria-label="l'Humain d'Abord au coeur de la république. Site d'éric Bocquet et Michelle Graume" width="484.863px" height="152.706px" viewBox="0 0 484.863 152.706" style="enable-background:new 0 0 484.863 152.706;"
	 xml:space="preserve">
  <title>l'Humain d'Abord au coeur de la république</title>
  <desc>Site d'éric Bocquet et Michelle Graume</desc>
  <g>

		<rect x="0.431" y="0.431" style="fill:#010101;fill-opacity:0.4;stroke:#FFFFFF;stroke-width:0.8627;stroke-miterlimit:10;" width="484" height="151.844"/>
	<g>
		<path style="fill:#FFFFFF;" d="M61.647,122.399c-0.742,4.141-0.927,6.457-0.927,6.457h-2.163c0.216-1.637,0.433-2.936,0.834-4.572
			H59.33c-1.267,2.502-2.781,4.943-5.531,4.943c-2.472,0-3.646-1.885-3.646-4.542c0-5.47,3.121-11.03,8.775-11.03
			c2.132,0,3.584,0.4,4.203,0.586L61.647,122.399z M58.496,115.6c-3.862,0-6.087,4.326-6.087,8.745c0,2.009,0.649,2.874,1.885,2.874
			c2.719,0,5.438-5.531,6.056-9.857l0.216-1.482C60.226,115.755,59.361,115.6,58.496,115.6z"/>
		<path style="fill:#FFFFFF;" d="M67.614,114.025h2.225l-1.761,9.919c-0.401,2.193,0.062,3.275,1.36,3.275
			c2.317,0,5.438-3.461,6.767-10.814l0.433-2.38h2.225l-1.514,8.374c-0.742,4.141-0.927,6.457-0.927,6.457h-2.163
			c0.216-1.606,0.525-3.521,0.865-5.006h-0.062c-1.112,2.133-3.028,5.377-6.334,5.377c-2.503,0-3.522-2.008-2.966-5.067
			L67.614,114.025z"/>
		<path style="fill:#FFFFFF;" d="M100.625,129.287c-8.133,0-12.253-5.911-12.253-12.396s4.264-12.325,12.325-12.325
			c3.117,0,5.303,0.682,7.166,1.899l-2.257,3.69c-1.326-0.86-2.795-1.397-4.98-1.397c-4.479,0-6.879,3.583-6.879,7.989
			c0,4.551,2.293,8.313,6.951,8.313c2.58,0,4.156-0.896,5.41-1.828l2.078,3.547C106.967,127.889,104.101,129.287,100.625,129.287z"
			/>
		<path style="fill:#FFFFFF;" d="M118.68,129.287c-6.091,0-8.742-4.622-8.742-9.101s2.616-9.207,8.706-9.207
			c2.795,0,4.837,1.002,6.27,2.508c1.541-1.613,3.619-2.508,6.055-2.508c5.446,0,8.062,3.833,7.524,10.246h-11.106
			c0.25,2.688,1.612,4.514,4.479,4.514c2.4,0,3.726-0.787,4.55-1.217l1.541,3.08c-1.146,0.646-2.938,1.685-6.484,1.685
			c-2.831,0-5.052-0.932-6.592-2.544C123.48,128.248,121.438,129.287,118.68,129.287z M118.572,114.526
			c-2.687,0-3.583,2.257-3.583,5.518c0,3.26,1.075,5.625,3.762,5.625c2.723,0,3.69-2.223,3.69-5.482
			S121.295,114.526,118.572,114.526z M133.906,118c-0.072-1.971-0.86-3.582-3.009-3.582c-2.006,0-3.153,1.289-3.511,3.582H133.906z"
			/>
		<path style="fill:#FFFFFF;" d="M146.871,111.409v11.25c0,1.755,0.609,2.65,2.329,2.65c1.827,0,3.225-1.755,3.583-2.186v-11.715
			h4.765v12.432c0,2.222,0.25,3.977,0.465,5.016h-4.693c-0.143-0.465-0.322-1.611-0.358-2.328c-0.932,1.182-2.723,2.759-5.625,2.759
			c-3.834,0-5.231-2.472-5.231-5.661v-12.217H146.871z"/>
		<path style="fill:#FFFFFF;" d="M172.591,115.6c-0.287-0.18-0.824-0.395-1.827-0.395c-2.114,0-3.368,1.863-3.798,2.652v10.998
			h-4.765v-17.447h4.765v2.364c0.752-1.29,2.186-2.794,4.407-2.794c1.29,0,1.971,0.25,2.365,0.465L172.591,115.6z"/>
		<path style="fill:#FFFFFF;" d="M193.46,122.399c-0.741,4.141-0.927,6.457-0.927,6.457h-2.163c0.216-1.637,0.433-2.966,0.834-4.604
			h-0.062c-1.298,2.441-3.09,4.975-5.747,4.975s-3.646-2.193-3.646-4.758c0-5.779,3.43-10.814,8.806-10.814
			c1.205,0,1.823,0.154,2.225,0.246l1.329-7.292h2.225L193.46,122.399z M190.093,115.54c-3.801,0-6.087,4.232-6.087,8.62
			c0,1.761,0.495,3.06,1.761,3.06c2.998,0,5.655-5.438,6.396-9.857l0.248-1.514C192.07,115.724,191.112,115.54,190.093,115.54z"/>
		<path style="fill:#FFFFFF;" d="M198.84,123.604c0,2.348,0.989,3.646,2.905,3.646c1.637,0,3.059-0.958,3.862-1.823l1.298,1.515
			c-0.927,0.896-2.688,2.286-5.438,2.286c-3.368,0-4.882-2.502-4.882-5.346c0-5.592,3.615-10.227,7.972-10.227
			c2.225,0,3.924,1.111,3.924,3.367c0,3.708-4.697,5.191-9.61,5.871C198.84,123.14,198.84,123.356,198.84,123.604z M206.163,117.239
			c0-1.113-0.649-1.607-1.947-1.607c-2.194,0-4.388,2.256-5.129,5.594C203.073,120.637,206.163,119.463,206.163,117.239z"/>
		<path style="fill:#FFFFFF;" d="M219.082,128.856h-2.225l4.017-22.247h2.225L219.082,128.856z"/>
		<path style="fill:#FFFFFF;" d="M235.398,122.399c-0.742,4.141-0.927,6.457-0.927,6.457h-2.163
			c0.216-1.637,0.433-2.936,0.834-4.572h-0.062c-1.267,2.502-2.781,4.943-5.531,4.943c-2.472,0-3.646-1.885-3.646-4.542
			c0-5.47,3.121-11.03,8.775-11.03c2.132,0,3.584,0.4,4.203,0.586L235.398,122.399z M232.246,115.6
			c-3.862,0-6.087,4.326-6.087,8.745c0,2.009,0.649,2.874,1.885,2.874c2.719,0,5.438-5.531,6.056-9.857l0.216-1.482
			C233.977,115.755,233.111,115.6,232.246,115.6z"/>
		<path style="fill:#FFFFFF;" d="M260.727,128.856l-4.371-6.807c-1.863-2.759-2.257-3.01-3.368-3.01h-0.322v9.816h-5.052v-23.861
			h7.954c5.589,0,8.813,2.4,8.813,6.879c0,3.906-2.651,5.877-5.554,6.414v0.071c0.646,0.466,1.505,1.397,2.795,3.403l4.657,7.094
			H260.727z M255.209,108.865h-2.544v6.593h2.759c2.687,0,3.941-1.219,3.941-3.297C259.366,109.975,258.111,108.865,255.209,108.865
			z"/>
		<path style="fill:#FFFFFF;" d="M277.454,125.739c2.365,0,3.69-0.787,4.55-1.217l1.541,3.08c-1.146,0.646-2.938,1.685-6.521,1.685
			c-5.84,0-9.136-3.69-9.136-9.243c0-5.518,3.797-9.064,8.634-9.064c5.446,0,8.098,3.797,7.524,10.246h-11.071
			C273.19,123.913,274.552,125.739,277.454,125.739z M279.46,118c-0.036-1.971-0.824-3.582-3.01-3.582
			c-2.007,0-3.153,1.289-3.476,3.582H279.46z M276.451,104.637h6.162l-5.016,4.836h-4.12L276.451,104.637z"/>
		<path style="fill:#FFFFFF;" d="M296.511,129.287c-2.149,0-3.403-0.717-4.013-1.255v8.671h-4.765v-25.294h4.657v1.827
			c0.968-1.183,2.472-2.257,4.837-2.257c4.406,0,7.094,3.295,7.094,9.136C304.322,125.631,301.061,129.287,296.511,129.287z
			 M295.794,114.776c-1.791,0-2.938,1.29-3.296,1.791v7.847c0.609,0.538,1.505,1.183,3.01,1.183c2.437,0,3.762-2.042,3.762-5.481
			C299.27,116.819,298.124,114.776,295.794,114.776z"/>
		<path style="fill:#FFFFFF;" d="M312.379,111.409v11.25c0,1.755,0.609,2.65,2.329,2.65c1.827,0,3.225-1.755,3.583-2.186v-11.715
			h4.765v12.432c0,2.222,0.251,3.977,0.466,5.016h-4.693c-0.144-0.465-0.322-1.611-0.358-2.328
			c-0.932,1.182-2.723,2.759-5.625,2.759c-3.833,0-5.23-2.472-5.23-5.661v-12.217H312.379z"/>
		<path style="fill:#FFFFFF;" d="M332.404,103.061v9.709c0.788-0.789,2.328-1.791,4.264-1.791c4.37,0,7.416,3.009,7.416,9.027
			c0,5.948-4.013,9.28-9.279,9.28c-3.941,0-6.342-1.003-7.166-1.397v-24.828H332.404z M332.404,125.167
			c0.322,0.107,1.074,0.394,2.4,0.394c2.651,0,4.228-1.97,4.228-5.554c0-3.26-1.11-5.266-3.69-5.266
			c-1.505,0-2.651,0.967-2.938,1.325V125.167z"/>
		<path style="fill:#FFFFFF;" d="M347.735,128.856v-25.795h4.765v25.795H347.735z"/>
		<path style="fill:#FFFFFF;" d="M360.057,109.151c-1.684,0-2.901-1.325-2.901-2.865c0-1.506,1.218-2.795,2.901-2.795
			c1.685,0,2.938,1.289,2.938,2.795C362.996,107.826,361.742,109.151,360.057,109.151z M357.657,128.856v-17.447h4.801v17.447
			H357.657z"/>
		<path style="fill:#FFFFFF;" d="M377.934,136.667v-9.207c-0.86,0.896-2.329,1.827-4.264,1.827c-4.371,0-7.416-3.081-7.416-9.028
			s4.048-9.279,9.279-9.279c4.013,0,6.341,0.932,7.165,1.289v24.398H377.934z M377.934,115.098
			c-0.322-0.107-1.075-0.394-2.365-0.394c-2.723,0-4.299,2.007-4.299,5.554c0,3.26,1.146,5.266,3.726,5.266
			c1.505,0,2.616-0.967,2.938-1.325V115.098z"/>
		<path style="fill:#FFFFFF;" d="M391.723,111.409v11.25c0,1.755,0.609,2.65,2.329,2.65c1.827,0,3.225-1.755,3.583-2.186v-11.715
			h4.765v12.432c0,2.222,0.251,3.977,0.466,5.016h-4.693c-0.144-0.465-0.322-1.611-0.358-2.328
			c-0.932,1.182-2.723,2.759-5.625,2.759c-3.833,0-5.23-2.472-5.23-5.661v-12.217H391.723z"/>
		<path style="fill:#FFFFFF;" d="M415.367,125.739c2.365,0,3.69-0.787,4.551-1.217l1.54,3.08c-1.146,0.646-2.938,1.685-6.521,1.685
			c-5.84,0-9.136-3.69-9.136-9.243c0-5.518,3.798-9.064,8.634-9.064c5.446,0,8.098,3.797,7.524,10.246h-11.071
			C411.103,123.913,412.464,125.739,415.367,125.739z M417.374,118c-0.036-1.971-0.824-3.582-3.01-3.582
			c-2.007,0-3.153,1.289-3.476,3.582H417.374z"/>
	</g>
	<g>
		<g>
			<path style="fill:#FFFFFF;" d="M83.014,64.676l-8.743-0.009l-0.004-16.825l-9.333-0.01l0.004,16.825l-8.743-0.009l-0.009-38.845
				l8.743,0.009l0.004,16.035l9.333,0.01l-0.004-16.035l8.743,0.009L83.014,64.676z"/>
			<path style="fill:#FFFFFF;" d="M113.855,62.901c-3.003,1.578-7.026,2.364-12.068,2.359c-8.082-0.009-12.123-3.532-12.125-10.571
				l-0.005-20.438l8.314,0.008l0.005,21.012c0,2.667,1.343,4.001,4.027,4.004c1.451,0.001,2.63-0.24,3.536-0.728l-0.006-24.28
				l8.314,0.008L113.855,62.901z"/>
			<path style="fill:#FFFFFF;" d="M161.002,64.757l-8.314-0.009l-0.005-21.342c0-2.747-1.415-4.123-4.242-4.126
				c-1.522-0.001-2.755,0.487-3.697,1.464l0.005,23.996l-8.313-0.009l-0.005-21.455c-0.001-2.672-1.514-4.01-4.538-4.013
				c-1.296-0.001-2.43,0.186-3.402,0.561l0.006,24.899l-8.314-0.008l-0.007-28.738c3.182-1.502,7.08-2.251,11.692-2.247
				c4.112,0.004,7.17,1.024,9.173,3.058c2.252-2.03,5.434-3.043,9.546-3.039c3.326,0.004,5.918,0.948,7.778,2.832
				c1.752,1.733,2.629,4.012,2.63,6.834L161.002,64.757z"/>
			<path style="fill:#FFFFFF;" d="M190.02,63.093c-2.682,1.503-6.455,2.252-11.317,2.247c-8.439-0.009-12.659-3.212-12.661-9.611
				c-0.001-3.613,1.607-6.322,4.825-8.125c2.538-1.428,6.311-2.383,11.317-2.868l0-1.412c-0.001-2.71-1.7-4.067-5.097-4.07
				c-2.432-0.002-4.935,0.615-7.509,1.855l-1.825-5.027c3.467-1.54,7.097-2.308,10.888-2.304c7.58,0.008,11.372,3.72,11.374,11.135
				L190.02,63.093z M182.188,59.867l-0.003-11.066c-2.789,0.299-4.81,0.861-6.061,1.688c-1.501,1.015-2.252,2.651-2.251,4.91
				c0,3.388,1.752,5.083,5.257,5.087C180.382,60.486,181.401,60.281,182.188,59.867z"/>
			<path style="fill:#FFFFFF;" d="M205.083,25.62c0,1.167-0.429,2.145-1.287,2.934c-0.858,0.79-1.913,1.184-3.165,1.183
				c-1.252-0.001-2.307-0.398-3.165-1.189c-0.859-0.791-1.288-1.77-1.289-2.937c0-1.129,0.437-2.098,1.314-2.907
				c0.875-0.808,1.921-1.212,3.137-1.21c1.215,0.001,2.261,0.407,3.138,1.217C204.644,23.521,205.083,24.49,205.083,25.62z
				 M204.77,64.803l-8.313-0.009l-0.007-30.432l8.313,0.009L204.77,64.803z"/>
			<path style="fill:#FFFFFF;" d="M235.879,64.835l-8.313-0.009l-0.005-21.286c0-2.823-1.451-4.236-4.351-4.239
				c-1.197-0.001-2.393,0.205-3.589,0.617l0.006,24.899l-8.314-0.008l-0.007-28.738c3.218-1.502,7.258-2.251,12.122-2.246
				c8.295,0.008,12.445,3.231,12.446,9.667L235.879,64.835z"/>
		</g>
	</g>
	<g>
		<g>
			<path style="fill:#FFFFFF;" d="M277.455,64.236c-2.683,1.504-6.365,2.254-11.05,2.249c-4.435-0.004-7.911-1.351-10.434-4.041
				c-2.521-2.688-3.783-6.532-3.784-11.529c-0.001-4.809,1.169-8.63,3.511-11.465c2.341-2.834,5.407-4.25,9.197-4.246
				c1.537,0.001,2.95,0.154,4.237,0.456l-0.003-14.115l8.314,0.009L277.455,64.236z M269.139,60.448l-0.005-19.989
				c-0.675-0.225-1.438-0.339-2.292-0.34c-4.229-0.004-6.344,3.466-6.342,10.411c0.002,6.908,2.029,10.363,6.08,10.367
				C267.753,60.897,268.606,60.748,269.139,60.448z"/>
			<path style="fill:#FFFFFF;" d="M286.822,24.559c3.105,0.003,4.517,2.94,4.518,5.424c0.002,6.041-4.344,10.214-7.506,10.211
				c-0.903-0.001-1.525-0.735-1.525-1.413c0-0.847,0.339-1.185,1.468-1.579c1.355-0.45,3.5-2.142,3.951-4.117
				c-0.508,0.056-0.847,0.056-1.186,0.055c-3.105-0.003-4.235-2.545-4.235-4.126C282.305,26.586,284.168,24.556,286.822,24.559z"/>
			<path style="fill:#FFFFFF;" d="M318.952,64.281c-2.682,1.503-6.455,2.251-11.317,2.247c-8.439-0.009-12.66-3.212-12.661-9.611
				c-0.001-3.613,1.607-6.322,4.826-8.125c2.537-1.427,6.31-2.383,11.316-2.868v-1.412c-0.001-2.71-1.7-4.066-5.097-4.07
				c-2.433-0.003-4.935,0.615-7.51,1.855l-1.824-5.027c3.468-1.54,7.097-2.308,10.888-2.304c7.58,0.008,11.372,3.72,11.374,11.135
				L318.952,64.281z M311.12,61.055l-0.003-11.066c-2.789,0.299-4.81,0.861-6.062,1.688c-1.501,1.015-2.252,2.652-2.251,4.91
				c0,3.388,1.753,5.083,5.258,5.087C309.313,61.674,310.333,61.469,311.12,61.055z"/>
			<path style="fill:#FFFFFF;" d="M350.486,49.917c0.001,5.345-1.276,9.456-3.832,12.333c-2.556,2.877-6.213,4.313-10.968,4.308
				c-4.72-0.005-8.207-0.762-10.459-2.272l-0.011-42.682l8.313,0.009l0.004,14.68c1.506-0.751,3.3-1.126,5.38-1.124
				c3.443,0.003,6.233,1.353,8.368,4.045C349.417,41.908,350.485,45.476,350.486,49.917z M342.172,50.473
				c-0.002-6.85-1.879-10.278-5.634-10.282c-1.181-0.001-2.182,0.224-3.004,0.674l0.005,19.931c0.679,0.303,1.537,0.453,2.574,0.455
				C340.155,61.254,342.174,57.663,342.172,50.473z"/>
			<path style="fill:#FFFFFF;" d="M380.308,50.794c0.001,4.706-1.07,8.468-3.215,11.289c-2.288,3.009-5.471,4.511-9.547,4.507
				c-4.076-0.004-7.241-1.513-9.495-4.527c-2.182-2.825-3.273-6.59-3.274-11.296c-0.001-4.705,1.071-8.467,3.216-11.289
				c2.287-2.971,5.451-4.455,9.492-4.451c4.077,0.004,7.26,1.495,9.549,4.471C379.215,42.324,380.307,46.09,380.308,50.794z
				 M371.995,50.673c-0.002-6.775-1.486-10.164-4.454-10.167c-2.969-0.003-4.452,3.382-4.45,10.158
				c0.002,6.625,1.486,9.938,4.455,9.942C370.513,60.608,371.997,57.298,371.995,50.673z"/>
			<path style="fill:#FFFFFF;" d="M401.116,35.177l-1.565,6.209c-1.045-0.453-2.09-0.68-3.135-0.681
				c-0.937-0.001-1.765,0.167-2.485,0.506l0.006,24.843l-8.313-0.009l-0.007-28.738c2.932-1.502,6.953-2.251,12.067-2.246
				C398.755,35.061,399.9,35.1,401.116,35.177z"/>
			<path style="fill:#FFFFFF;" d="M429.176,64.394c-2.683,1.504-6.365,2.254-11.05,2.249c-4.435-0.004-7.911-1.351-10.434-4.041
				c-2.521-2.688-3.783-6.532-3.784-11.529c-0.001-4.809,1.169-8.63,3.511-11.465c2.341-2.834,5.407-4.25,9.197-4.246
				c1.537,0.001,2.95,0.154,4.237,0.456l-0.003-14.115l8.314,0.009L429.176,64.394z M420.861,60.605l-0.005-19.989
				c-0.675-0.225-1.438-0.339-2.292-0.34c-4.229-0.004-6.344,3.466-6.342,10.411c0.002,6.908,2.029,10.363,6.08,10.367
				C419.475,61.055,420.328,60.906,420.861,60.605z"/>
		</g>
	</g>
	<path style="fill:#FFFFFF;" d="M29.062,66.7c-1.47,0-2.75-0.453-3.911-1.385c-1.148-0.922-1.97-2.239-2.438-3.912
		c-0.313-1.101-0.467-2.579-0.467-4.391l-0.002-22.778c0.002-5.514,2.187-8.192,6.682-8.186c1.449,0.001,2.771,0.468,3.926,1.385
		c1.16,0.92,1.985,2.237,2.454,3.912c0.197,0.783,0.302,1.904,0.301,3.321c0.001,4.635-0.905,9.624-2.689,14.829
		c-1.942,5.619-4.053,8.469-6.275,8.464c-0.271,0-0.493,0.221-0.491,0.492c-0.002,0.84,0.269,1.732,0.799,2.655
		c0.583,1.013,1.268,1.528,2.034,1.528c2.06,0.003,3.781-1.041,5.111-3.1l0.986,2.174C33.72,65.072,31.749,66.703,29.062,66.7z
		 M28.953,30.054c-0.763-0.001-1.439,0.526-2.012,1.562c-0.523,0.939-0.791,1.821-0.791,2.619v18.761
		c0.002,0.132,0.057,0.261,0.152,0.354c0.092,0.089,0.214,0.139,0.344,0.14c0.002,0,0.01-0.001,0.014-0.001
		c0.928-0.033,2.18-0.918,3.636-7.53c0.934-4.298,1.409-8.02,1.41-11.064c-0.001-0.849-0.062-1.458-0.183-1.869
		C30.958,31.057,30.093,30.055,28.953,30.054z"/>
	<path style="fill:#FFFFFF;" d="M40.919,40.035c-0.609,0-0.948-0.497-0.948-0.842c0-0.468,0.041-0.674,1.055-1.026
		c1.382-0.458,3.553-2.179,4.016-4.207c0.036-0.151-0.008-0.31-0.112-0.429c-0.091-0.102-0.223-0.162-0.357-0.161
		c-0.017,0-0.038,0-0.053,0.004c-0.449,0.048-0.745,0.049-1.061,0.049c-2.541-0.003-3.488-2.08-3.488-3.387
		c0-2.109,1.613-3.698,3.752-3.695c2.754,0.003,3.756,2.755,3.752,4.603C47.478,36.412,43.531,40.037,40.919,40.035z"/>

		<line style="fill:#FFFFFF;stroke:#EAEAE8;stroke-width:0.8627;stroke-miterlimit:10;" x1="43.535" y1="86.846" x2="441.328" y2="86.846"/>
	<g>
		<path style="fill:#FFFFFF;stroke:#FFFFFF;stroke-width:1.0991;stroke-miterlimit:10;" d="M445.476,63.042
			c0-2.282,1.808-4.185,3.978-4.185c2.169,0,3.972,1.903,3.972,4.185c0,2.281-1.803,4.185-3.972,4.185
			C447.284,67.227,445.476,65.324,445.476,63.042z M447.903,56.195l-2.22-22.442l-0.052-2.228c-0.051-2.772,1.136-4.728,3.822-4.728
			c2.684,0,3.868,1.956,3.817,4.728l-0.049,2.228l-2.224,22.442H447.903z"/>
	</g>
	<rect x="223.446" y="84.594" style="fill:#EC1D28;" width="37.967" height="4.504"/>
</g>
</svg>
